<svg width="38" height="38" viewBox="0 0 38 38" fill="none" xmlns="http://www.w3.org/2000/svg">
<path d="M6.33337 14.25V30.0833C6.33337 30.9232 6.667 31.7286 7.26087 32.3225C7.85473 32.9164 8.66019 33.25 9.50004 33.25H28.5C29.3399 33.25 30.1453 32.9164 30.7392 32.3225C31.3331 31.7286 31.6667 30.9232 31.6667 30.0833V14.25M6.33337 14.25V11.0833C6.33337 10.2435 6.667 9.43803 7.26087 8.84416C7.85473 8.2503 8.66019 7.91667 9.50004 7.91667H12.6667M6.33337 14.25H31.6667M31.6667 14.25V11.0833C31.6667 10.2435 31.3331 9.43803 30.7392 8.84416C30.1453 8.2503 29.3399 7.91667 28.5 7.91667H25.3334M12.6667 7.91667H25.3334M12.6667 7.91667V4.75M25.3334 7.91667V4.75" stroke="white" stroke-width="3" stroke-linecap="round" stroke-linejoin="round"/>
</svg>
