<svg width="32" height="31" viewBox="0 0 32 31" fill="none" xmlns="http://www.w3.org/2000/svg">
<path d="M23.1186 1.98303L9.60169 15.5C8.78248 18.0668 8.88078 22.9056 15.8277 21.726L29.7542 7.79943" stroke="white" stroke-width="3.5" stroke-linecap="round"/>
<path d="M2.05639 26.5506C1.37297 27.2341 1.37297 28.3421 2.05639 29.0255C2.7398 29.7089 3.84784 29.7089 4.53126 29.0255L2.05639 26.5506ZM4.53126 29.0255L11.3307 22.2261L8.85582 19.7512L2.05639 26.5506L4.53126 29.0255Z" fill="white"/>
<circle cx="3" cy="28" r="3" fill="white"/>
<path d="M10.5847 8.12707C10.8851 6.89826 12.1576 4.32594 14.8446 3.86719" stroke="white" stroke-width="1.5" stroke-linecap="round"/>
<path d="M7.38989 8.20904C7.89822 6.12951 10.0517 1.77636 14.5989 1" stroke="white" stroke-width="1.5" stroke-linecap="round"/>
<path d="M27.8701 15.6638C27.5697 16.8926 26.2972 19.4649 23.6102 19.9237" stroke="white" stroke-width="1.5" stroke-linecap="round"/>
<path d="M31.0649 15.582C30.5566 17.6615 28.4031 22.0147 23.8559 22.791" stroke="white" stroke-width="1.5" stroke-linecap="round"/>
</svg>
