<svg width="38" height="38" viewBox="0 0 38 38" fill="none" xmlns="http://www.w3.org/2000/svg">
<path d="M13.9333 17.7333C12.2536 17.7333 10.6427 17.0661 9.45497 15.8783C8.26724 14.6906 7.59998 13.0797 7.59998 11.4V6.33333C7.59998 5.99738 7.73344 5.6752 7.97098 5.43766C8.20853 5.20011 8.53071 5.06666 8.86665 5.06666H10.1333C10.4693 5.06666 10.7914 4.93321 11.029 4.69566C11.2665 4.45811 11.4 4.13593 11.4 3.79999C11.4 3.46405 11.2665 3.14187 11.029 2.90432C10.7914 2.66678 10.4693 2.53333 10.1333 2.53333H8.86665C7.85883 2.53333 6.89228 2.93368 6.17964 3.64632C5.46701 4.35896 5.06665 5.3255 5.06665 6.33333V11.4C5.06828 12.831 5.41723 14.2402 6.08353 15.5066C6.74983 16.773 7.71357 17.8588 8.89198 18.6707C10.0242 19.6688 10.9423 20.8861 11.5911 22.2489C12.2399 23.6117 12.6057 25.0919 12.6667 26.6C12.6667 28.9516 13.6008 31.2068 15.2636 32.8697C16.9265 34.5325 19.1817 35.4667 21.5333 35.4667C23.8849 35.4667 26.1402 34.5325 27.803 32.8697C29.4658 31.2068 30.4 28.9516 30.4 26.6V25.156C31.594 24.8477 32.6346 24.1145 33.3267 23.0938C34.0189 22.0732 34.315 20.8352 34.1596 19.6118C34.0042 18.3884 33.408 17.2637 32.4827 16.4485C31.5574 15.6333 30.3665 15.1835 29.1333 15.1835C27.9001 15.1835 26.7093 15.6333 25.784 16.4485C24.8586 17.2637 24.2624 18.3884 24.107 19.6118C23.9516 20.8352 24.2478 22.0732 24.9399 23.0938C25.632 24.1145 26.6726 24.8477 27.8666 25.156V26.6C27.8666 28.2797 27.1994 29.8906 26.0117 31.0783C24.8239 32.2661 23.213 32.9333 21.5333 32.9333C19.8536 32.9333 18.2427 32.2661 17.055 31.0783C15.8672 29.8906 15.2 28.2797 15.2 26.6C15.2641 25.09 15.6339 23.6087 16.2871 22.2458C16.9403 20.8828 17.8632 19.6666 19 18.6707C20.1737 17.856 21.1325 16.769 21.7943 15.5027C22.4561 14.2365 22.8012 12.8287 22.8 11.4V6.33333C22.8 5.3255 22.3996 4.35896 21.687 3.64632C20.9744 2.93368 20.0078 2.53333 19 2.53333H17.7333C17.3974 2.53333 17.0752 2.66678 16.8376 2.90432C16.6001 3.14187 16.4667 3.46405 16.4667 3.79999C16.4667 4.13593 16.6001 4.45811 16.8376 4.69566C17.0752 4.93321 17.3974 5.06666 17.7333 5.06666H19C19.3359 5.06666 19.6581 5.20011 19.8957 5.43766C20.1332 5.6752 20.2667 5.99738 20.2667 6.33333V11.4C20.2667 12.2317 20.1028 13.0553 19.7846 13.8237C19.4663 14.592 18.9998 15.2902 18.4117 15.8783C17.8236 16.4664 17.1254 16.9329 16.357 17.2512C15.5886 17.5695 14.765 17.7333 13.9333 17.7333ZM29.1333 22.8C28.4614 22.8 27.8171 22.5331 27.342 22.058C26.8669 21.5829 26.6 20.9385 26.6 20.2667C26.6 19.5948 26.8669 18.9504 27.342 18.4753C27.8171 18.0002 28.4614 17.7333 29.1333 17.7333C29.8052 17.7333 30.4496 18.0002 30.9247 18.4753C31.3997 18.9504 31.6667 19.5948 31.6667 20.2667C31.6667 20.9385 31.3997 21.5829 30.9247 22.058C30.4496 22.5331 29.8052 22.8 29.1333 22.8Z" fill="white"/>
</svg>
