<svg width="34" height="34" viewBox="0 0 34 34" fill="none" xmlns="http://www.w3.org/2000/svg">
<path d="M12.1351 8.62204C12.0338 7.92411 12.0838 7.21255 12.2818 6.53567C12.4798 5.85879 12.8211 5.23244 13.2826 4.69913C13.7441 4.16583 14.3149 3.73806 14.9563 3.44487C15.5977 3.15168 16.2947 2.99994 16.9999 2.99994C17.7052 2.99994 18.4022 3.15168 19.0436 3.44487C19.685 3.73806 20.2558 4.16583 20.7173 4.69913C21.1788 5.23244 21.5201 5.85879 21.7181 6.53567C21.9161 7.21255 21.9661 7.92411 21.8648 8.62204L20.2328 20.0404C20.1198 20.8172 19.7309 21.5273 19.1373 22.0409C18.5436 22.5545 17.7849 22.8371 16.9999 22.8371C16.215 22.8371 15.4562 22.5545 14.8626 22.0409C14.2689 21.5273 13.8801 20.8172 13.7671 20.0404L12.1351 8.62204ZM19.8333 28.512C19.8333 29.2635 19.5348 29.9842 19.0034 30.5155C18.4721 31.0469 17.7514 31.3454 16.9999 31.3454C16.2485 31.3454 15.5278 31.0469 14.9965 30.5155C14.4651 29.9842 14.1666 29.2635 14.1666 28.512C14.1666 27.7606 14.4651 27.0399 14.9965 26.5086C15.5278 25.9772 16.2485 25.6787 16.9999 25.6787C17.7514 25.6787 18.4721 25.9772 19.0034 26.5086C19.5348 27.0399 19.8333 27.7606 19.8333 28.512Z" fill="white"/>
</svg>
