<svg width="38" height="38" viewBox="0 0 38 38" fill="none" xmlns="http://www.w3.org/2000/svg">
<path d="M9.50004 34.8334C8.62921 34.8334 7.88346 34.523 7.26279 33.9024C6.64213 33.2817 6.33232 32.5365 6.33338 31.6667V15.8334C6.33338 14.9625 6.64371 14.2168 7.26438 13.5961C7.88504 12.9755 8.63027 12.6657 9.50004 12.6667H11.0834V9.50004C11.0834 7.30976 11.8555 5.44249 13.3998 3.89821C14.9441 2.35393 16.8108 1.58232 19 1.58338C21.1903 1.58338 23.0576 2.35551 24.6019 3.89979C26.1462 5.44407 26.9178 7.31082 26.9167 9.50004V12.6667H28.5C29.3709 12.6667 30.1166 12.977 30.7373 13.5977C31.358 14.2184 31.6678 14.9636 31.6667 15.8334V31.6667C31.6667 32.5375 31.3564 33.2833 30.7357 33.904C30.115 34.5246 29.3698 34.8344 28.5 34.8334H9.50004ZM19 26.9167C19.8709 26.9167 20.6166 26.6064 21.2373 25.9857C21.858 25.365 22.1678 24.6198 22.1667 23.75C22.1667 22.8792 21.8564 22.1335 21.2357 21.5128C20.615 20.8921 19.8698 20.5823 19 20.5834C18.1292 20.5834 17.3835 20.8937 16.7628 21.5144C16.1421 22.135 15.8323 22.8803 15.8334 23.75C15.8334 24.6209 16.1437 25.3666 16.7644 25.9873C17.385 26.608 18.1303 26.9178 19 26.9167ZM14.25 12.6667H23.75V9.50004C23.75 8.1806 23.2882 7.05907 22.3646 6.13546C21.441 5.21185 20.3195 4.75004 19 4.75004C17.6806 4.75004 16.5591 5.21185 15.6355 6.13546C14.7118 7.05907 14.25 8.1806 14.25 9.50004V12.6667Z" fill="white"/>
</svg>
