<svg width="38" height="38" viewBox="0 0 38 38" fill="none" xmlns="http://www.w3.org/2000/svg">
<path d="M30.875 5.34375H7.125C6.02269 5.34375 4.96554 5.78164 4.18609 6.56109C3.40664 7.34054 2.96875 8.39769 2.96875 9.5V26.125C2.96875 27.2273 3.40664 28.2845 4.18609 29.0639C4.96554 29.8434 6.02269 30.2812 7.125 30.2812H30.875C31.4208 30.2812 31.9613 30.1737 32.4655 29.9649C32.9698 29.756 33.428 29.4499 33.8139 29.0639C34.1999 28.678 34.506 28.2198 34.7149 27.7155C34.9237 27.2113 35.0312 26.6708 35.0312 26.125V9.5C35.0312 8.95419 34.9237 8.41373 34.7149 7.90947C34.506 7.40521 34.1999 6.94703 33.8139 6.56109C33.428 6.17514 32.9698 5.869 32.4655 5.66013C31.9613 5.45125 31.4208 5.34375 30.875 5.34375ZM31.4688 26.125C31.4688 26.2825 31.4062 26.4335 31.2948 26.5448C31.1835 26.6562 31.0325 26.7188 30.875 26.7188H7.125C6.96753 26.7188 6.81651 26.6562 6.70516 26.5448C6.59381 26.4335 6.53125 26.2825 6.53125 26.125V9.5C6.53125 9.34253 6.59381 9.19151 6.70516 9.08016C6.81651 8.96881 6.96753 8.90625 7.125 8.90625H30.875C31.0325 8.90625 31.1835 8.96881 31.2948 9.08016C31.4062 9.19151 31.4688 9.34253 31.4688 9.5V26.125ZM25.5312 33.8438C25.5312 34.3162 25.3436 34.7692 25.0095 35.1033C24.6755 35.4373 24.2224 35.625 23.75 35.625H14.25C13.7776 35.625 13.3245 35.4373 12.9905 35.1033C12.6564 34.7692 12.4688 34.3162 12.4688 33.8438C12.4688 33.3713 12.6564 32.9183 12.9905 32.5842C13.3245 32.2502 13.7776 32.0625 14.25 32.0625H23.75C24.2224 32.0625 24.6755 32.2502 25.0095 32.5842C25.3436 32.9183 25.5312 33.3713 25.5312 33.8438Z" fill="white"/>
<path d="M16.0787 19.4595C15.924 19.4595 15.7756 19.521 15.6662 19.6304C15.5568 19.7398 15.4953 19.8881 15.4953 20.0429V21.0824C14.7435 20.2321 14.3285 19.1362 14.3287 18.0012C14.3284 17.8296 14.3385 17.6582 14.359 17.4879C14.3701 17.4109 14.3658 17.3325 14.3462 17.2573C14.3266 17.182 14.2921 17.1115 14.2448 17.0497C14.1976 16.988 14.1384 16.9363 14.0709 16.8978C14.0034 16.8592 13.9289 16.8346 13.8517 16.8252C13.7745 16.8159 13.6962 16.8221 13.6215 16.8434C13.5467 16.8648 13.477 16.9009 13.4164 16.9496C13.3557 16.9983 13.3055 17.0586 13.2685 17.127C13.2315 17.1954 13.2086 17.2705 13.2011 17.3479C13.1747 17.5646 13.1617 17.7828 13.162 18.0012C13.1628 19.3931 13.6631 20.7386 14.5719 21.7929H13.7453C13.5906 21.7929 13.4422 21.8543 13.3328 21.9637C13.2235 22.0731 13.162 22.2215 13.162 22.3762C13.162 22.5309 13.2235 22.6793 13.3328 22.7887C13.4422 22.8981 13.5906 22.9595 13.7453 22.9595H16.0787C16.1699 22.9583 16.2595 22.9354 16.3401 22.8926C16.4206 22.8497 16.4898 22.7883 16.5418 22.7134C16.5482 22.7046 16.557 22.6976 16.5634 22.6883C16.5675 22.6824 16.5675 22.6754 16.571 22.6696C16.5988 22.6227 16.6196 22.572 16.6328 22.5191C16.6416 22.4893 16.6478 22.4589 16.6515 22.4281C16.6532 22.4106 16.662 22.3949 16.662 22.3762V20.0429C16.662 19.8881 16.6005 19.7398 16.4911 19.6304C16.3817 19.521 16.2334 19.4595 16.0787 19.4595ZM16.9537 14.5012H15.9136C16.764 13.7493 17.8601 13.3343 18.9953 13.3345C19.1669 13.3341 19.3384 13.3445 19.5087 13.3654C19.6624 13.384 19.8171 13.3408 19.939 13.2452C20.0608 13.1496 20.1396 13.0096 20.1582 12.8559C20.1768 12.7022 20.1335 12.5474 20.038 12.4256C19.9424 12.3038 19.8024 12.2249 19.6487 12.2064C19.4319 12.1803 19.2137 12.1674 18.9953 12.1679C17.6034 12.1687 16.258 12.6689 15.2037 13.5778V12.7512C15.2037 12.5965 15.1422 12.4481 15.0328 12.3387C14.9234 12.2293 14.775 12.1679 14.6203 12.1679C14.4656 12.1679 14.3172 12.2293 14.2078 12.3387C14.0985 12.4481 14.037 12.5965 14.037 12.7512V15.0845C14.0406 15.1231 14.0482 15.1613 14.0597 15.1983C14.0738 15.2703 14.1017 15.3388 14.142 15.4001L14.149 15.41C14.1875 15.466 14.2357 15.5146 14.2913 15.5535C14.2977 15.5582 14.3012 15.5652 14.3077 15.5699C14.3158 15.5757 14.3252 15.5774 14.3339 15.5821C14.3671 15.602 14.4023 15.6185 14.4389 15.6311C14.488 15.6482 14.5392 15.6586 14.5912 15.662C14.6017 15.662 14.6098 15.6679 14.6203 15.6679H16.9537C17.1084 15.6679 17.2567 15.6064 17.3661 15.497C17.4755 15.3876 17.537 15.2392 17.537 15.0845C17.537 14.9298 17.4755 14.7814 17.3661 14.672C17.2567 14.5626 17.1084 14.5012 16.9537 14.5012ZM23.9303 20.8035C23.9162 20.7317 23.8883 20.6634 23.8481 20.6023L23.8417 20.5924C23.803 20.5363 23.7546 20.4877 23.6987 20.4489C23.6923 20.4442 23.6894 20.4372 23.6824 20.4325C23.6766 20.4284 23.669 20.4284 23.6626 20.4244C23.5886 20.3831 23.5074 20.3562 23.4234 20.345C23.4047 20.3433 23.389 20.3345 23.3703 20.3345H21.037C20.8823 20.3345 20.7339 20.396 20.6245 20.5054C20.5151 20.6148 20.4537 20.7631 20.4537 20.9179C20.4537 21.0726 20.5151 21.2209 20.6245 21.3303C20.7339 21.4397 20.8823 21.5012 21.037 21.5012H22.0765C21.2262 22.253 20.1303 22.668 18.9953 22.6679C18.8237 22.668 18.6523 22.6575 18.482 22.6364C18.3283 22.6178 18.1735 22.661 18.0517 22.7566C17.9299 22.8522 17.851 22.9922 17.8325 23.1459C17.8139 23.2996 17.8571 23.4544 17.9527 23.5762C18.0483 23.698 18.1883 23.7769 18.342 23.7954C18.5588 23.8215 18.777 23.8346 18.9953 23.8345C20.3873 23.8337 21.7327 23.3334 22.787 22.4246V23.2512C22.787 23.4059 22.8485 23.5543 22.9578 23.6637C23.0672 23.7731 23.2156 23.8345 23.3703 23.8345C23.525 23.8345 23.6734 23.7731 23.7828 23.6637C23.8922 23.5543 23.9537 23.4059 23.9537 23.2512V20.9179C23.9499 20.8792 23.9421 20.8405 23.9303 20.8035ZM24.2453 14.2095C24.4 14.2095 24.5484 14.1481 24.6578 14.0387C24.7672 13.9293 24.8287 13.7809 24.8287 13.6262C24.8287 13.4715 24.7672 13.3231 24.6578 13.2137C24.5484 13.1043 24.4 13.0429 24.2453 13.0429H21.912C21.874 13.0466 21.8364 13.0542 21.8 13.0656L21.7959 13.0662C21.7252 13.0805 21.6579 13.1082 21.5976 13.1479L21.5859 13.1554C21.5302 13.194 21.4818 13.2422 21.443 13.2978C21.4383 13.3036 21.4313 13.3071 21.4267 13.3135C21.4226 13.3194 21.4226 13.3269 21.4185 13.3334C21.3769 13.4079 21.35 13.4896 21.3392 13.5743C21.3374 13.5918 21.3287 13.6075 21.3287 13.6262V15.9595C21.3287 16.1142 21.3901 16.2626 21.4995 16.372C21.6089 16.4814 21.7573 16.5429 21.912 16.5429C22.0667 16.5429 22.2151 16.4814 22.3245 16.372C22.4339 16.2626 22.4953 16.1142 22.4953 15.9595V14.9194C23.2472 15.7699 23.6621 16.866 23.662 18.0012C23.6621 18.1728 23.6517 18.3442 23.6311 18.5145C23.6126 18.668 23.6558 18.8226 23.7512 18.9443C23.8465 19.066 23.9863 19.145 24.1397 19.1638C24.1634 19.1665 24.1871 19.1679 24.2109 19.1679C24.3533 19.1676 24.4907 19.1153 24.5972 19.0207C24.7037 18.9261 24.7719 18.7959 24.789 18.6545C24.8155 18.4378 24.8288 18.2196 24.8287 18.0012C24.8279 16.6093 24.3276 15.2638 23.4187 14.2095H24.2453Z" fill="white"/>
</svg>
