<svg width="38" height="38" viewBox="0 0 38 38" fill="none" xmlns="http://www.w3.org/2000/svg">
<path d="M19 3.16663C16.9207 3.16663 14.8618 3.57617 12.9408 4.37187C11.0198 5.16757 9.27436 6.33384 7.8041 7.8041C4.83478 10.7734 3.16663 14.8007 3.16663 19C3.16663 23.1992 4.83478 27.2265 7.8041 30.1958C9.27436 31.6661 11.0198 32.8324 12.9408 33.6281C14.8618 34.4238 16.9207 34.8333 19 34.8333C23.1992 34.8333 27.2265 33.1651 30.1958 30.1958C33.1651 27.2265 34.8333 23.1992 34.8333 19C34.8333 16.9207 34.4238 14.8618 33.6281 12.9408C32.8324 11.0198 31.6661 9.27436 30.1958 7.8041C28.7256 6.33384 26.9801 5.16757 25.0591 4.37187C23.1381 3.57617 21.0792 3.16663 19 3.16663ZM19 13.2841C21.5547 14.9439 24.5351 15.8292 27.5816 15.8333C28.8166 15.8333 30.0041 15.6908 31.1441 15.4216C31.4766 16.5458 31.6666 17.7491 31.6666 19C31.6666 25.9825 25.9825 31.6666 19 31.6666C14.25 31.6666 10.1175 29.0383 7.91663 25.1591L10.6875 22.1666V20.5833C10.6875 20.0584 10.896 19.555 11.2671 19.1838C11.6383 18.8126 12.1417 18.6041 12.6666 18.6041C13.1915 18.6041 13.6949 18.8126 14.0661 19.1838C14.4373 19.555 14.6458 20.0584 14.6458 20.5833V22.1666H19M25.3333 18.6041C24.8084 18.6041 24.305 18.8126 23.9338 19.1838C23.5626 19.555 23.3541 20.0584 23.3541 20.5833C23.3541 21.1082 23.5626 21.6116 23.9338 21.9828C24.305 22.3539 24.8084 22.5625 25.3333 22.5625C25.8582 22.5625 26.3616 22.3539 26.7328 21.9828C27.1039 21.6116 27.3125 21.1082 27.3125 20.5833C27.3125 20.0584 27.1039 19.555 26.7328 19.1838C26.3616 18.8126 25.8582 18.6041 25.3333 18.6041Z" fill="white"/>
</svg>
