<svg width="38" height="38" viewBox="0 0 38 38" fill="none" xmlns="http://www.w3.org/2000/svg">
<path fill-rule="evenodd" clip-rule="evenodd" d="M19 6.33329C16.7845 6.33289 14.6077 6.91357 12.6868 8.01737C10.7659 9.12118 9.16806 10.7095 8.05284 12.6238C6.93761 14.5381 6.34398 16.7114 6.3312 18.9269C6.31841 21.1423 6.88692 23.3223 7.97998 25.2494C8.71878 24.2892 9.66849 23.5118 10.7557 22.9773C11.8429 22.4427 13.0385 22.1654 14.25 22.1666H23.75C24.9615 22.1654 26.1571 22.4427 27.2443 22.9773C28.3315 23.5118 29.2812 24.2892 30.02 25.2494C31.113 23.3223 31.6815 21.1423 31.6688 18.9269C31.656 16.7114 31.0623 14.5381 29.9471 12.6238C28.8319 10.7095 27.2341 9.12118 25.3132 8.01737C23.3923 6.91357 21.2154 6.33289 19 6.33329ZM31.5764 28.6203C33.6934 25.8605 34.8384 22.4782 34.8333 19C34.8333 10.2552 27.7447 3.16663 19 3.16663C10.2552 3.16663 3.16664 10.2552 3.16664 19C3.16142 22.4782 4.30649 25.8605 6.42356 28.6203L6.41564 28.6488L6.97773 29.3027C8.46271 31.0389 10.3065 32.4323 12.382 33.3871C14.4575 34.3419 16.7154 34.8353 19 34.8333C22.2099 34.8392 25.345 33.8641 27.9854 32.0387C29.111 31.261 30.1317 30.3414 31.0222 29.3027L31.5843 28.6488L31.5764 28.6203ZM19 9.49996C17.7402 9.49996 16.532 10.0004 15.6412 10.8912C14.7504 11.782 14.25 12.9902 14.25 14.25C14.25 15.5097 14.7504 16.7179 15.6412 17.6087C16.532 18.4995 17.7402 19 19 19C20.2598 19 21.4679 18.4995 22.3587 17.6087C23.2495 16.7179 23.75 15.5097 23.75 14.25C23.75 12.9902 23.2495 11.782 22.3587 10.8912C21.4679 10.0004 20.2598 9.49996 19 9.49996Z" fill="white"/>
</svg>
