<svg width="38" height="38" viewBox="0 0 38 38" fill="none" xmlns="http://www.w3.org/2000/svg">
<path d="M30.875 5.34375H7.125C6.02269 5.34375 4.96554 5.78164 4.18609 6.56109C3.40664 7.34054 2.96875 8.39769 2.96875 9.5V26.125C2.96875 27.2273 3.40664 28.2845 4.18609 29.0639C4.96554 29.8434 6.02269 30.2812 7.125 30.2812H30.875C31.4208 30.2812 31.9613 30.1737 32.4655 29.9649C32.9698 29.756 33.428 29.4499 33.8139 29.0639C34.1999 28.678 34.506 28.2198 34.7149 27.7155C34.9237 27.2113 35.0312 26.6708 35.0312 26.125V9.5C35.0312 8.95419 34.9237 8.41373 34.7149 7.90947C34.506 7.40521 34.1999 6.94703 33.8139 6.56109C33.428 6.17514 32.9698 5.869 32.4655 5.66013C31.9613 5.45125 31.4208 5.34375 30.875 5.34375ZM31.4688 26.125C31.4688 26.2825 31.4062 26.4335 31.2948 26.5448C31.1835 26.6562 31.0325 26.7188 30.875 26.7188H7.125C6.96753 26.7188 6.81651 26.6562 6.70516 26.5448C6.59381 26.4335 6.53125 26.2825 6.53125 26.125V9.5C6.53125 9.34253 6.59381 9.19151 6.70516 9.08016C6.81651 8.96881 6.96753 8.90625 7.125 8.90625H30.875C31.0325 8.90625 31.1835 8.96881 31.2948 9.08016C31.4062 9.19151 31.4688 9.34253 31.4688 9.5V26.125ZM25.5312 33.8438C25.5312 34.3162 25.3436 34.7692 25.0095 35.1033C24.6755 35.4373 24.2224 35.625 23.75 35.625H14.25C13.7776 35.625 13.3245 35.4373 12.9905 35.1033C12.6564 34.7692 12.4688 34.3162 12.4688 33.8438C12.4688 33.3713 12.6564 32.9183 12.9905 32.5842C13.3245 32.2502 13.7776 32.0625 14.25 32.0625H23.75C24.2224 32.0625 24.6755 32.2502 25.0095 32.5842C25.3436 32.9183 25.5312 33.3713 25.5312 33.8438Z" fill="white"/>
<path d="M32.5269 29.2693L27.8019 24.5443C27.4269 24.8443 26.9957 25.0818 26.5082 25.2568C26.0207 25.4318 25.5019 25.5193 24.9519 25.5193C23.5894 25.5193 22.4364 25.0473 21.4929 24.1033C20.5494 23.1593 20.0774 22.0063 20.0769 20.6443C20.0769 19.2818 20.5489 18.1288 21.4929 17.1853C22.4369 16.2418 23.5899 15.7698 24.9519 15.7693C26.3144 15.7693 27.4674 16.2413 28.4109 17.1853C29.3544 18.1293 29.8264 19.2823 29.8269 20.6443C29.8269 21.1943 29.7394 21.713 29.5644 22.2005C29.3894 22.688 29.1519 23.1193 28.8519 23.4943L33.5769 28.2193L32.5269 29.2693ZM24.9519 24.0193C25.8894 24.0193 26.6864 23.691 27.3429 23.0345C27.9994 22.378 28.3274 21.5813 28.3269 20.6443C28.3269 19.7068 27.9987 18.9098 27.3422 18.2533C26.6857 17.5968 25.8889 17.2688 24.9519 17.2693C24.0144 17.2693 23.2174 17.5975 22.5609 18.254C21.9044 18.9105 21.5764 19.7073 21.5769 20.6443C21.5769 21.5818 21.9052 22.3788 22.5617 23.0353C23.2182 23.6918 24.0149 24.0198 24.9519 24.0193Z" fill="white"/>
<path d="M14.2 11.7C14.2 11.4614 14.1052 11.2324 13.9364 11.0637C13.7677 10.8949 13.5387 10.8 13.3 10.8H12.7C12.4614 10.8 12.2324 10.8949 12.0637 11.0637C11.8949 11.2324 11.8 11.4614 11.8 11.7V19.2H14.2V11.7ZM14.8 12.6V19.2H16.9C16.9796 19.2 17.0559 19.1684 17.1122 19.1122C17.1684 19.0559 17.2 18.9796 17.2 18.9V13.8C17.2 13.4818 17.0736 13.1766 16.8486 12.9515C16.6235 12.7265 16.3183 12.6 16 12.6H14.8ZM10 14.4H11.2V19.2H9.10005C9.02048 19.2 8.94418 19.1684 8.88792 19.1122C8.83166 19.0559 8.80005 18.9796 8.80005 18.9V15.6C8.80005 15.2818 8.92648 14.9766 9.15152 14.7515C9.37656 14.5265 9.68179 14.4 10 14.4Z" fill="white"/>
</svg>
