<svg width="38" height="38" viewBox="0 0 38 38" fill="none" xmlns="http://www.w3.org/2000/svg">
<path d="M35.15 27.9196L22.1691 5.37638C21.8448 4.82408 21.3817 4.36614 20.8258 4.04796C20.2699 3.72977 19.6405 3.56238 19 3.56238C18.3595 3.56238 17.7301 3.72977 17.1742 4.04796C16.6183 4.36614 16.1552 4.82408 15.8309 5.37638L2.85001 27.9196C2.53789 28.4538 2.37341 29.0614 2.37341 29.6801C2.37341 30.2987 2.53789 30.9063 2.85001 31.4405C3.17023 31.9962 3.63252 32.4566 4.18945 32.7746C4.74637 33.0926 5.37787 33.2566 6.01915 33.25H31.9809C32.6216 33.2561 33.2525 33.0918 33.8089 32.7738C34.3652 32.4559 34.8271 31.9957 35.147 31.4405C35.4596 30.9066 35.6246 30.2992 35.6251 29.6805C35.6256 29.0618 35.4617 28.454 35.15 27.9196ZM17.8125 15.4375C17.8125 15.1225 17.9376 14.8205 18.1603 14.5978C18.383 14.3751 18.6851 14.25 19 14.25C19.3149 14.25 19.617 14.3751 19.8397 14.5978C20.0624 14.8205 20.1875 15.1225 20.1875 15.4375V21.375C20.1875 21.6899 20.0624 21.992 19.8397 22.2147C19.617 22.4374 19.3149 22.5625 19 22.5625C18.6851 22.5625 18.383 22.4374 18.1603 22.2147C17.9376 21.992 17.8125 21.6899 17.8125 21.375V15.4375ZM19 28.5C18.6477 28.5 18.3033 28.3955 18.0104 28.1998C17.7175 28.0041 17.4892 27.7259 17.3543 27.4004C17.2195 27.0749 17.1842 26.7167 17.253 26.3712C17.3217 26.0257 17.4914 25.7083 17.7405 25.4592C17.9896 25.2101 18.307 25.0404 18.6525 24.9717C18.998 24.903 19.3562 24.9382 19.6817 25.0731C20.0071 25.2079 20.2853 25.4362 20.4811 25.7291C20.6768 26.022 20.7813 26.3664 20.7813 26.7187C20.7813 27.1911 20.5936 27.6442 20.2595 27.9783C19.9255 28.3123 19.4724 28.5 19 28.5Z" fill="white"/>
</svg>
