                <svg width="25" height="20" viewBox="0 0 25 27" fill="none" xmlns="http://www.w3.org/2000/svg">
                    <path d="M4.5 8.6665C4.5 6.54477 5.34286 4.50994 6.84315 3.00965C8.34344 1.50936 10.3783 0.666504 12.5 0.666504C14.6217 0.666504 16.6566 1.50936 18.1569 3.00965C19.6571 4.50994 20.5 6.54477 20.5 8.6665V12.5558C20.5 13.4932 20.804 14.4052 21.3667 15.1558L24.1 18.7998C24.3229 19.097 24.4586 19.4503 24.4919 19.8202C24.5253 20.1901 24.455 20.5621 24.2889 20.8943C24.1227 21.2265 23.8674 21.5059 23.5515 21.7011C23.2355 21.8964 22.8714 21.9998 22.5 21.9998H2.5C2.12858 21.9998 1.76449 21.8964 1.44854 21.7011C1.13259 21.5059 0.877252 21.2265 0.711147 20.8943C0.545041 20.5621 0.474726 20.1901 0.508082 19.8202C0.541438 19.4503 0.677146 19.097 0.900001 18.7998L3.63333 15.1558C4.1959 14.4058 4.5 13.4934 4.5 12.5558V8.6665ZM12.5 26.6665C11.4949 26.6663 10.5167 26.3419 9.71081 25.7413C8.90488 25.1408 8.31424 24.2962 8.02667 23.3332H16.9733C16.6858 24.2962 16.0951 25.1408 15.2892 25.7413C14.4833 26.3419 13.5051 26.6663 12.5 26.6665Z" fill="white"/>
                </svg>   