<svg width="20" height="20" viewBox="0 0 38 38" fill="none" xmlns="http://www.w3.org/2000/svg">
<path d="M19 34.8334C17.0208 34.8334 15.1668 34.4571 13.4378 33.7045C11.7088 32.9518 10.2046 31.9364 8.92525 30.6581C7.64592 29.3777 6.63047 27.8736 5.87892 26.1456C5.12736 24.4177 4.75106 22.5636 4.75 20.5834H7.91667C7.91667 23.6709 8.99228 26.2902 11.1435 28.4415C13.2947 30.5927 15.9136 31.6678 19 31.6667C22.0875 31.6667 24.7069 30.5911 26.8581 28.4399C29.0093 26.2887 30.0844 23.6698 30.0833 20.5834C30.0833 17.4959 29.0077 14.8765 26.8565 12.7253C24.7053 10.5741 22.0864 9.49899 19 9.50004H18.7625L21.2167 11.9542L19 14.25L12.6667 7.91671L19 1.58337L21.2167 3.87921L18.7625 6.33337H19C20.9792 6.33337 22.8333 6.70968 24.5623 7.46229C26.2913 8.2149 27.7954 9.23087 29.0748 10.5102C30.3541 11.7895 31.3701 13.2937 32.1227 15.0227C32.8753 16.7517 33.2511 18.6053 33.25 20.5834C33.25 22.5625 32.8737 24.4166 32.1211 26.1456C31.3685 27.8746 30.353 29.3788 29.0748 30.6581C27.7944 31.9375 26.2902 32.9534 24.5623 33.706C22.8343 34.4587 20.9802 34.8344 19 34.8334Z" fill="white"/>
</svg>
